<?xml version="1.0" encoding="UTF-8" standalone="no"?>
<svg width="84px" height="44px" viewBox="0 0 84 44" version="1.1" xmlns="http://www.w3.org/2000/svg" xmlns:xlink="http://www.w3.org/1999/xlink">
    <!-- Generator: Sketch 3.7.2 (28276) - http://www.bohemiancoding.com/sketch -->
    <title>Kollecto_BlackLogoWhiteRectangle</title>
    <desc>Created with Sketch.</desc>
    <defs></defs>
    <g id="wilma" stroke="none" stroke-width="1" fill="none" fill-rule="evenodd">
        <g id="Artboard-1" transform="translate(-48.000000, -39.000000)" fill="#323952">
            <g id="Kollecto_BlackLogoWhiteRectangle" transform="translate(48.000000, 39.000000)">
                <path d="M1.771,4.38603478 C1.771,4.38603478 1.77875676,4.39158261 1.79389189,4.40229565 C1.78121622,4.38469565 1.91648649,4.50789565 1.94145946,4.5585913 C2.02262162,4.67662609 2.07672973,4.81130435 2.12667568,4.97046957 C2.22448649,5.28803478 2.30110811,5.71521739 2.36410811,6.2568 C2.42767568,6.79704348 2.48064865,7.44766957 2.52567568,8.19241739 C2.57410811,8.93697391 2.59775676,9.77565217 2.62178378,10.6891304 C2.66851351,12.5164696 2.68402703,14.6447304 2.66491892,16.9231652 C2.65016216,18.0618087 2.63502703,19.2385217 2.6197027,20.4343652 C2.59416216,21.6292522 2.56824324,22.8430783 2.54232432,24.0569043 C2.48783784,26.4828348 2.43335135,28.9089565 2.38227027,31.1831826 C2.32324324,33.4562609 2.28010811,35.5768696 2.26837838,37.3919652 C2.24908108,39.2062957 2.25664865,40.7172174 2.31378378,41.7586783 C2.34064865,42.2790261 2.37621622,42.6821043 2.41689189,42.9386435 C2.457,43.2007304 2.49218919,43.2910261 2.49218919,43.2910261 C2.57732432,43.5087304 2.47175676,43.7547478 2.25664865,43.8406435 C2.04135135,43.9267304 1.79805405,43.8199826 1.71310811,43.6024696 L1.70648649,43.5858261 C1.70648649,43.5858261 1.63005405,43.3920348 1.57348649,43.0928348 C1.51313514,42.7896174 1.45391892,42.3626261 1.40737838,41.8235304 C1.31581081,40.745913 1.25281081,39.2219826 1.22254054,37.3952174 C1.19927027,35.5690261 1.20191892,33.4417217 1.21743243,31.1638609 C1.24259459,28.8861913 1.29140541,26.4583478 1.33321622,24.0314609 C1.37994595,21.605913 1.42648649,19.1801739 1.47018919,16.9061391 C1.51389189,14.6336348 1.55872973,12.5137913 1.56951351,10.6998435 C1.57537838,9.79286957 1.56459459,8.9629913 1.55797297,8.22914783 C1.54813514,7.49568696 1.52581081,6.85845217 1.48948649,6.34154783 C1.45221622,5.82636522 1.40264865,5.42577391 1.34664865,5.19544348 C1.33321622,5.13786087 1.31921622,5.09252174 1.30805405,5.06095652 C1.30010811,5.04048696 1.29348649,5.02326957 1.288,5.00930435 C1.28137838,4.99686957 1.30256757,5.02862609 1.31637838,5.03704348 C1.32394595,5.04278261 1.33132432,5.04737391 1.33832432,5.05081739 L1.32735135,5.04163478 C1.31297297,5.02996522 1.30559459,5.02403478 1.30559459,5.02403478 L1.29991892,5.01944348 C1.13116216,4.88246957 1.10410811,4.63281739 1.23956757,4.46217391 C1.36972973,4.29822609 1.60318919,4.26723478 1.771,4.38603478" id="Fill-2"></path>
                <path d="M21.8137027,7.12723478 C21.8137027,7.12723478 21.7995135,7.19763478 21.7720811,7.33422609 C21.7448378,7.47081739 21.7062432,7.67226087 21.6405946,7.94066087 C21.5111892,8.4742087 21.2932432,9.24554783 20.9150541,10.1974783 C20.5291081,11.143287 19.9870811,12.269687 19.2115946,13.4666783 C18.8294324,14.0685217 18.385973,14.6845217 17.8882162,15.3087478 C17.3927297,15.9350783 16.8391622,16.5669565 16.2267568,17.1911826 C15.0053514,18.4411652 13.5646757,19.683687 11.8971622,20.7825391 C11.0675676,21.3378957 10.1757297,21.846 9.24397297,22.3223478 C8.3107027,22.7964 7.33032432,23.2293217 6.29867568,23.5849565 C5.26589189,23.9346609 4.18713514,24.2286957 3.03327027,24.3151652 C2.74418919,24.3331478 2.45037838,24.3356348 2.14994595,24.3057913 C1.99935135,24.2906783 1.84762162,24.2682957 1.69456757,24.2352 C1.61283784,24.2145391 1.55286486,24.1988522 1.45297297,24.1693913 L1.25545946,24.0982261 C0.939702703,23.9702435 0.665378378,23.8047652 0.419810811,23.5398087 C0.185405405,23.2775304 0.00983783784,22.8935826 0.0525945946,22.4916522 C0.0868378378,22.0925913 0.317837838,21.7392522 0.605783784,21.5255652 C0.894486486,21.307287 1.22954054,21.1934609 1.554,21.1529043 C2.20727027,21.0717913 2.83424324,21.227513 3.38459459,21.4544 C3.9707027,21.7023304 4.45597297,22.045913 4.91872973,22.4208696 C5.37751351,22.7965913 5.79921622,23.2044522 6.19954054,23.6266609 C7.00056757,24.4714609 7.72175676,25.3694435 8.44559459,26.2526957 C9.15959459,27.137287 9.87094595,28.0184348 10.5766216,28.8926957 C11.9938378,30.6245739 13.4371622,32.2738087 14.9571081,33.7265739 C15.7146216,34.4548696 16.4923784,35.1309391 17.2822432,35.7501913 C18.0666216,36.3763304 18.8644324,36.9456522 19.6692432,37.450313 C21.2762162,38.4642261 22.904,39.2286783 24.4668919,39.7538087 C25.2455946,40.0237391 26.0053784,40.2475652 26.74,40.4109391 C27.4717838,40.587513 28.1746216,40.7286957 28.8422703,40.8201391 C29.5076486,40.9297565 30.1372703,40.997287 30.7214865,41.0474087 C31.3058919,41.0975304 31.8456486,41.1350261 32.3348919,41.1482261 C33.3131892,41.1884 34.0884865,41.1811304 34.618027,41.1757739 C35.1492703,41.168887 35.4324865,41.1652522 35.4324865,41.1652522 L35.437973,41.1652522 C35.5293514,41.1641043 35.6042703,41.2379478 35.6054054,41.3303478 C35.6065405,41.4106957 35.5511081,41.4786087 35.4763784,41.4956348 C35.4763784,41.4956348 35.1963784,41.5595304 34.6715676,41.6790957 C34.408027,41.7351478 34.0805405,41.7889043 33.6945946,41.8562435 C33.3075135,41.9088522 32.8615946,41.9781043 32.3583514,42.0209565 C31.8552973,42.0655304 31.2958649,42.1005391 30.6844054,42.1124 C30.0735135,42.1129739 29.4102162,42.1053217 28.703027,42.0467826 C27.9956486,41.9905391 27.2458919,41.8847478 26.4596216,41.7420348 C25.6746757,41.5901391 24.8605946,41.371287 24.0232432,41.1048 C22.3553514,40.5525043 20.6083784,39.7474957 18.9202432,38.6507478 C18.0764595,38.1026609 17.2442162,37.489913 16.4327838,36.8193913 C15.6266486,36.1423652 14.84,35.4106261 14.0813514,34.6306783 C12.5585676,33.0749913 11.1394595,31.338713 9.77805405,29.5360522 C8.40643243,27.743913 7.11237838,25.85 5.61797297,24.1778087 C5.24262162,23.7638261 4.85459459,23.3643826 4.43705405,23.0127652 C4.02291892,22.6661217 3.56848649,22.3481739 3.11235135,22.1496 C2.625,21.9395478 2.11551351,21.8266783 1.64689189,21.8812 C1.41475676,21.9070261 1.20097297,21.9871826 1.03940541,22.1069391 C0.876513514,22.226887 0.780783784,22.3916 0.763567568,22.5576522 C0.743702703,22.7252348 0.819945946,22.8989391 0.952945946,23.0508348 C1.08745946,23.1985217 1.30124324,23.3274609 1.49837838,23.405513 L1.6922973,23.4732348 L1.85121622,23.5134087 C1.96851351,23.5373217 2.08959459,23.5541565 2.21313514,23.5654435 C2.46135135,23.5843826 2.71827027,23.5723304 2.97443243,23.5482261 C4.00608108,23.4470261 5.02108108,23.1093739 5.98083784,22.719687 C7.90697297,21.9269217 9.6477027,20.8632696 11.2102162,19.7569565 C12.7729189,18.645287 14.1685676,17.4815826 15.3676486,16.3138609 C15.9628378,15.7257913 16.5133784,15.1421217 17.0164324,14.5684 C17.517973,13.9931478 17.9638919,13.4222957 18.3704595,12.8759304 C19.1773514,11.7782261 19.7865405,10.7524522 20.2422973,9.88163478 C20.6938919,9.00947826 20.9956486,8.28998261 21.1867297,7.79871304 C21.2860541,7.55594783 21.3549189,7.35966957 21.4018378,7.22862609 C21.4489459,7.09777391 21.4731622,7.03024348 21.4731622,7.03024348 C21.5066486,6.93726957 21.6084324,6.88925217 21.7003784,6.92311304 C21.784,6.95391304 21.8309189,7.04172174 21.8137027,7.12723478" id="Fill-3"></path>
                <path d="M20.2277297,21.0010087 C20.2277297,21.0010087 20.2048378,21.0306609 20.1594324,21.0888174 C20.1100541,21.148887 20.0525405,21.232487 19.9781892,21.3342609 C19.8253243,21.5534957 19.6041622,21.8859826 19.3727838,22.352 C19.1414054,22.8170609 18.8962162,23.4164174 18.700973,24.1544696 C18.5059189,24.8904174 18.3522973,25.7686957 18.3496486,26.7579304 C18.3460541,27.251687 18.3782162,27.7728 18.4692162,28.3065391 C18.5560541,28.8398957 18.7007838,29.3889391 18.938027,29.9121565 C19.1735676,30.4338435 19.5114595,30.9289391 19.9744054,31.284 C20.4386757,31.6409739 21.0242162,31.8242435 21.6920541,31.7794783 C21.9921081,31.7628348 22.3231892,31.6830609 22.6158649,31.5437913 C22.9100541,31.3993565 23.1889189,31.1986783 23.4257838,30.9381217 C23.9063243,30.4210261 24.2445946,29.7221913 24.4657568,28.9684522 C24.9075135,27.4516 24.965973,25.7174261 24.7107568,23.9815304 C24.5779459,23.1153043 24.3658649,22.2341565 23.9994054,21.4226435 C23.8151351,21.0218609 23.5877297,20.6314087 23.2931622,20.3477043 C23.1467297,20.2069043 22.9830811,20.1026435 22.8177297,20.0529043 C22.7341081,20.0274609 22.6535135,20.0184696 22.5651622,20.0213391 C22.4974324,20.022487 22.463,20.0291826 22.4215676,20.0337739 C22.3761622,20.0416174 22.3318919,20.0511826 22.2897027,20.0638087 C21.9514324,20.1565913 21.7480541,20.4865913 21.7734054,20.8592522 C21.7828649,21.0398435 21.8498378,21.2179478 21.9567297,21.3367478 C22.0925676,21.4817565 22.2675676,21.6128 22.4611081,21.7254783 C23.2350811,22.1773391 24.2275676,22.2565391 25.0876216,21.9037739 C25.9582703,21.5596174 26.6832432,20.840887 27.2487297,20.0083304 C27.8193243,19.1709913 28.2497297,18.2110261 28.6014324,17.2129913 C29.2984054,15.2073565 29.6873784,13.0389217 29.9524324,10.8280174 C30.0133514,10.2766783 30.0765405,9.7109913 30.1166486,9.16194783 C30.1533514,8.60907826 30.1633784,8.04913043 30.1533514,7.48765217 C30.1242162,6.36871304 30.0284865,5.2229913 29.7636216,4.15092174 C29.6955135,3.88768696 29.6134054,3.62464348 29.5072703,3.41325217 C29.4578919,3.31052174 29.3884595,3.21869565 29.3606486,3.20186087 C29.3466486,3.19267826 29.3644324,3.2118087 29.4032162,3.21372174 C29.4414324,3.21697391 29.4561892,3.20434783 29.4412432,3.21582609 C29.4378378,3.21888696 29.4346216,3.21965217 29.4287568,3.22634783 C29.4340541,3.22156522 29.3943243,3.25810435 29.4357568,3.21869565 L29.4003784,3.25982609 C29.3894054,3.27302609 29.4032162,3.26441739 29.4018919,3.26633043 C29.4096486,3.25427826 29.3958378,3.28201739 29.3875135,3.30095652 C29.3778649,3.3176 29.3693514,3.3482087 29.3597027,3.37154783 C29.3231892,3.47638261 29.2912162,3.60226087 29.2647297,3.73215652 C29.2119459,3.99386087 29.1763784,4.27354783 29.1472432,4.55476522 C29.036,5.68613913 29.0178378,6.85711304 29.0051622,8.02693913 C28.9875676,10.3713739 29.0517027,12.7429739 29.1177297,15.1241391 C29.134,15.7198609 29.1500811,16.3161565 29.1663514,16.9128348 C29.1828108,17.510087 29.1941622,18.107913 29.1983243,18.7080348 L29.204,19.612713 L29.2011622,20.0594087 C29.2017297,20.2063304 29.2011622,20.339287 29.2062703,20.4856348 C29.2223514,21.0599304 29.263973,21.6357565 29.3354865,22.2068 C29.4073784,22.7774609 29.5125676,23.3441043 29.6684595,23.890087 C29.8237838,24.435113 30.0262162,24.9661739 30.3154865,25.420713 C30.6015405,25.8737217 30.9901351,26.2385391 31.4394595,26.3437565 C31.6664865,26.3929217 31.8982432,26.389287 32.1127838,26.3106609 C32.3335676,26.2335652 32.5515135,26.0986957 32.7514865,25.9244174 C33.1538919,25.5760522 33.4946216,25.1144348 33.7958108,24.6304348 C34.0958649,24.1426087 34.3588378,23.6243652 34.5992973,23.0948348 C35.0787027,22.033287 35.4610541,20.9235304 35.8025405,19.8070783 C36.4822973,17.5707304 36.9711622,15.2896174 37.3421622,13.0232348 C37.5245405,11.8893739 37.6743784,10.7568522 37.7746486,9.63121739 C37.8701892,8.51093913 37.9195676,7.37612174 37.9379189,6.26483478 C37.9485135,5.15182609 37.9358378,4.04455652 37.8117297,2.97133913 C37.7468378,2.43836522 37.6618919,1.90443478 37.5097838,1.42923478 C37.4713784,1.31215652 37.4282432,1.19890435 37.3792432,1.10191304 C37.3330811,1.00549565 37.2712162,0.921704348 37.24,0.899704348 C37.2254324,0.889565217 37.2305405,0.89893913 37.2564595,0.904104348 C37.2687568,0.904869565 37.2808649,0.907165217 37.2884324,0.90506087 C37.2700811,0.91386087 37.3281622,0.891286957 37.3001622,0.903147826 C37.2910811,0.907930435 37.2551351,0.92093913 37.268,0.918643478 C37.285027,0.912330435 37.2248649,0.9636 37.1944054,1.04069565 C37.1181622,1.20177391 37.0678378,1.44970435 37.0366216,1.69323478 C37.0038919,1.94001739 36.9868649,2.19808696 36.9745676,2.45634783 C36.9564054,2.97535652 36.9637838,3.50086957 36.9753243,4.02389565 C37.0067297,5.07511304 37.0377568,6.11370435 37.0684054,7.13833043 C37.0924324,8.16582609 37.0973514,9.18088696 37.1018919,10.1812174 C37.1066216,11.1817391 37.1113514,12.1671478 37.1158919,13.1361043 C37.1187297,15.0745913 37.1302703,16.9478435 37.1047297,18.745913 C37.0878919,20.548 37.0388919,22.2618957 37.0886486,23.8839652 C37.1344324,25.5062261 37.2377297,27.044887 37.4744054,28.4544174 C37.5952973,29.156887 37.7487297,29.8302783 37.9759459,30.4321217 C38.0907838,30.7307478 38.2234054,31.013687 38.3866757,31.2488 C38.5482432,31.4848696 38.7408378,31.6713913 38.9497027,31.7530783 C39.0507297,31.7951652 39.1691622,31.8135304 39.2673514,31.8125739 C39.3381081,31.8074087 39.4338378,31.8104696 39.4790541,31.7974609 C39.5342973,31.7877043 39.5884054,31.7834957 39.6504595,31.7634087 C39.8912973,31.7021913 40.1154865,31.5816696 40.316027,31.4253739 C40.7174865,31.1091478 41.0264324,30.6775652 41.275973,30.2456 C41.7744865,29.3721043 42.0728378,28.4898087 42.3155676,27.7270783 C42.556027,26.9595652 42.7035946,26.2871304 42.8046216,25.7390435 C42.9067838,25.1907652 42.9531351,24.7637739 42.9818919,24.4760522 C43.0132973,24.1885217 43.0178378,24.0381565 43.0178378,24.0381565 C43.025027,23.8091652 43.2144054,23.6291478 43.4408649,23.6362261 C43.6675135,23.6434957 43.8453514,23.8349913 43.8383514,24.0639826 C43.837027,24.1033913 43.8305946,24.1412696 43.8192432,24.1772348 L43.8152703,24.189287 C43.8152703,24.189287 43.6298649,24.7676 43.3451351,25.8618609 C43.2017297,26.4089913 43.0310811,27.084487 42.8108649,27.8776348 C42.5787297,28.6663826 42.297973,29.5781391 41.7814865,30.5365739 C41.5196486,31.0108174 41.1940541,31.5062957 40.6997027,31.9176 C40.4524324,32.12 40.1542703,32.2938957 39.8158108,32.3887826 C39.7348378,32.4161391 39.6394865,32.4314435 39.5452703,32.4465565 C39.4421622,32.4662609 39.3840811,32.4616696 39.3025405,32.469513 C39.0951892,32.478313 38.902973,32.4469391 38.7126486,32.3750087 C38.3327568,32.2305739 38.0465135,31.9491652 37.8317838,31.6549391 C37.6130811,31.3572696 37.453027,31.0335826 37.3137838,30.7016696 C37.040973,30.0353565 36.8612432,29.3290609 36.7134865,28.5984696 C36.4257297,27.1357565 36.2751351,25.5699304 36.1841351,23.9214609 C36.088973,22.2705043 36.0914324,20.5395826 36.0598378,18.7485913 C36.0036486,15.1568522 35.9425405,11.265913 35.878027,7.15038261 C35.8787838,6.11906087 35.9154865,5.07262609 35.9658108,4.00725217 C35.9951351,3.47427826 36.0310811,2.93690435 36.0904865,2.38977391 C36.1186757,2.11544348 36.1517838,1.8393913 36.2051351,1.55568696 C36.2622703,1.2714087 36.319973,0.98253913 36.4894865,0.661530435 C36.5831351,0.502747826 36.6938108,0.326556522 36.9548919,0.200486957 C36.9965135,0.180591304 36.9934865,0.184991304 37.0150541,0.176 C37.0175135,0.173895652 37.1087027,0.144434783 37.1225135,0.144052174 C37.1957297,0.129895652 37.2755676,0.123965217 37.3542703,0.135826087 C37.5143243,0.15706087 37.6416486,0.235878261 37.7298108,0.311634783 C37.9029189,0.468504348 37.9816216,0.624034783 38.0531351,0.771147826 C38.122,0.919217391 38.1708108,1.06307826 38.2135676,1.20617391 C38.3774054,1.77702609 38.4458919,2.33582609 38.4998108,2.89787826 C38.5995135,4.01987826 38.622027,5.14398261 38.6002703,6.27573913 C38.5762432,7.4096 38.5264865,8.53848696 38.426027,9.69071304 C38.3217838,10.8366261 38.1677838,11.9825391 37.9812432,13.1294087 C37.6026757,15.4221913 37.0986757,17.721287 36.4244054,19.9989565 C36.0848108,21.1370261 35.6914865,22.266487 35.2128378,23.3735652 C34.9710541,23.9260522 34.7041081,24.4718435 34.3892973,24.9996522 C34.0708919,25.5244 33.7108649,26.0397739 33.2216216,26.4774783 C32.9777568,26.6948 32.6903784,26.8882087 32.354,27.0112174 C32.0125135,27.1403478 31.6314865,27.1533565 31.2814865,27.0821913 C30.9254324,27.0123652 30.6005946,26.838087 30.3306216,26.6251652 C30.0598919,26.4103304 29.8334324,26.1602957 29.6417838,25.8947652 C29.2601892,25.3621739 28.9807568,24.7855826 28.7637568,24.1956 C28.5442973,23.6056174 28.3804595,23.0020522 28.2533243,22.3923652 C28.1273243,21.782487 28.0433243,21.1649565 28.0034054,20.5434087 C27.9598919,19.8971826 27.9723784,19.3332174 27.9511892,18.7302261 C27.9177027,17.5372522 27.8995405,16.3400696 27.8953784,15.1453739 C27.8834595,12.7550261 27.8972703,10.3719478 27.9905405,8.00111304 C28.0435135,6.81464348 28.108973,5.63486957 28.2701622,4.44476522 C28.3129189,4.14633043 28.3615405,3.84808696 28.4355135,3.54104348 C28.4735405,3.38704348 28.5170541,3.23132174 28.5832703,3.06412174 C28.6021892,3.02069565 28.6156216,2.98166957 28.640973,2.9346087 C28.6651892,2.88888696 28.6814595,2.85005217 28.7314054,2.77907826 C28.7507027,2.75114783 28.7811622,2.70982609 28.7942162,2.69605217 L28.8311081,2.65626087 C28.8963784,2.58949565 28.8871081,2.60594783 28.9192703,2.57706087 C28.9400811,2.55926957 28.9677027,2.54109565 28.9938108,2.52368696 C29.0980541,2.45558261 29.2526216,2.38728696 29.4355676,2.39532174 C29.6188919,2.40431304 29.7717568,2.49078261 29.8678649,2.57361739 C30.0602703,2.74502609 30.1391622,2.91050435 30.2152162,3.06622609 C30.355973,3.37862609 30.4316486,3.67591304 30.4984324,3.9732 C30.6251892,4.56624348 30.6938649,5.15086957 30.7422973,5.73415652 C30.789973,6.31706087 30.817973,6.89728696 30.824027,7.47598261 C30.8329189,8.05486957 30.8213784,8.63203478 30.7816486,9.20843478 C30.7379459,9.78827826 30.6736216,10.3434435 30.6098649,10.9076 C30.3344054,13.149687 29.9357838,15.3550435 29.2085405,17.4314609 C28.8405676,18.4654609 28.3948378,19.472487 27.7782703,20.3775478 C27.1677568,21.274 26.3631351,22.0952696 25.3227838,22.5096348 C24.2901892,22.9328 23.0818378,22.8421217 22.1408108,22.2904 C21.9065946,22.1538087 21.6784324,21.9885217 21.4775135,21.7719652 C21.2555946,21.5204 21.1485135,21.206087 21.1301622,20.8973217 C21.1129459,20.5877913 21.1869189,20.2692696 21.3636216,20.0008696 C21.5367297,19.7299826 21.8214595,19.5348522 22.1122432,19.4535478 C22.1850811,19.4325043 22.2579189,19.4175826 22.3305676,19.406487 C22.4077568,19.3965391 22.4919459,19.3894609 22.5435946,19.3896522 C22.6936216,19.3852522 22.851973,19.4051478 22.9951892,19.4506783 C23.285027,19.5415478 23.5249189,19.7108522 23.7173243,19.898713 C24.1011892,20.2803652 24.3435405,20.7266783 24.5448378,21.1710783 C24.937973,22.0667652 25.1432432,22.9898087 25.2777568,23.8965913 C25.4056486,24.805287 25.4482162,25.7044174 25.4075405,26.5817391 C25.3721622,27.4588696 25.2580811,28.3180174 25.0272703,29.134887 C24.7911622,29.9464 24.4496757,30.7328522 23.8959189,31.3702783 C23.6204595,31.686887 23.2888108,31.9579652 22.9214054,32.1580696 C22.5475676,32.3560696 22.1574595,32.4683652 21.7397297,32.5194435 C21.6292432,32.5358957 21.5543243,32.5343652 21.4604865,32.5427826 C21.3431892,32.5481391 21.255973,32.5460348 21.1524865,32.5425913 C20.9528919,32.5343652 20.7546216,32.5045217 20.5601351,32.4622435 C20.1715405,32.3713739 19.8045135,32.2076174 19.484027,31.9918261 C18.840973,31.5564174 18.3912703,30.9518957 18.0753243,30.3464174 C17.4426757,29.1199652 17.2614324,27.872087 17.2260541,26.7694087 C17.1814054,24.5458783 17.8176486,22.836 18.4576757,21.825913 C18.7757027,21.3153217 19.0812432,20.9650435 19.3016486,20.7448522 C19.4168649,20.6287304 19.5052162,20.5493391 19.5589459,20.5049565 C19.6145676,20.4569391 19.6429459,20.4326435 19.6429459,20.4326435 C19.8143514,20.2849565 20.0714595,20.3056174 20.2175135,20.4789391 C20.3457838,20.6308348 20.3454054,20.8498783 20.2277297,21.0010087" id="Fill-4"></path>
                <path d="M72.1295135,18.7805391 C72.1295135,18.7805391 72.1015135,18.8147826 72.0472162,18.8811652 C71.9923514,18.9473565 71.9108108,19.0464522 71.816973,19.1729043 C71.6204054,19.423513 71.3352973,19.8047826 71.0371351,20.3218783 C70.7285676,20.831513 70.3997568,21.4800348 70.1386757,22.2634261 C69.8711622,23.0418435 69.6494324,23.9537913 69.5998649,24.9634957 C69.5591892,25.9670783 69.6199189,27.0770261 69.9965946,28.1550261 C70.3416757,29.2284348 71.0045946,30.3016522 72.0591351,30.8960348 C72.5812973,31.1889217 73.1937027,31.3530609 73.8257838,31.3413913 C74.4540811,31.3257043 75.0744324,31.136313 75.5912973,30.7630783 C76.1106216,30.3934783 76.5217297,29.8591652 76.825,29.2622957 C77.129027,28.6637043 77.3363784,28.0044696 77.4680541,27.3289739 C77.7321622,25.9754957 77.724973,24.5625217 77.5253784,23.2121043 C77.3155676,21.8678087 76.916,20.5468522 76.2055946,19.4941043 C75.8502973,18.9750957 75.3998378,18.5339478 74.8723784,18.3120348 C74.6139459,18.1989739 74.322973,18.1522957 74.0618919,18.1610957 C74.0321892,18.1633913 73.9809189,18.1790783 73.9621892,18.1934261 C73.9402432,18.2093043 73.9288919,18.2248 73.9190541,18.253113 C73.8980541,18.3095478 73.9156486,18.4205043 73.9678649,18.521513 C74.0745676,18.7300348 74.2864595,18.9045043 74.5163243,19.0213913 C74.7495946,19.1396174 75.0099189,19.2050435 75.271,19.2360348 C75.7971351,19.294 76.3255405,19.2113565 76.8136486,19.0734261 C77.7944054,18.7885739 78.6308108,18.305913 79.3351622,17.8423826 C80.0395135,17.3719652 80.6171081,16.9032696 81.0813784,16.5053565 C81.5454595,16.106487 81.8945135,15.7738087 82.1327027,15.5474957 C82.3676757,15.3177391 82.4931081,15.195113 82.4931081,15.195113 L82.495,15.1933913 C82.5523243,15.1373391 82.6437027,15.1388696 82.6991351,15.1968348 C82.754,15.2542261 82.7530541,15.3454783 82.6974324,15.4017217 C82.6974324,15.4017217 82.5727568,15.5274087 82.3391081,15.763287 C82.1020541,15.995913 81.7543243,16.3375826 81.2902432,16.7498435 C80.8254054,17.1607652 80.2464865,17.646487 79.5322973,18.1402435 C78.8164054,18.6267304 77.9654324,19.1405739 76.9245135,19.4619652 C76.4051892,19.6169217 75.8325135,19.7204174 75.2269189,19.6643652 C74.9257297,19.6335652 74.6164054,19.5629739 74.3227838,19.4204522 C74.0331351,19.2756348 73.748027,19.0674957 73.5664054,18.7353913 C73.4827838,18.5697217 73.4114595,18.3619652 73.4780541,18.1176696 C73.5115405,17.9982957 73.5927027,17.8800696 73.6975135,17.8075652 C73.8061081,17.7342957 73.9065676,17.7019652 74.0302973,17.6887652 C74.3855946,17.6717391 74.7270811,17.7310435 75.0521081,17.8657217 C75.7023514,18.1341217 76.2141081,18.645287 76.6068649,19.2100174 C77.3891622,20.3584174 77.8042432,21.7319826 78.0339189,23.1317565 C78.2495946,24.5370783 78.2679459,26.0017043 77.9981622,27.4343826 C77.8628919,28.149287 77.6474054,28.8567304 77.3174595,29.517113 C76.9882703,30.1744348 76.5287297,30.789287 75.918973,31.2294783 C75.3133784,31.6744522 74.5674054,31.9049739 73.8458378,31.9258261 C73.1263514,31.9692522 72.3905946,31.8416522 71.7418649,31.5281043 C71.0910541,31.2202957 70.5386216,30.7481565 70.1084054,30.2125043 C69.6783784,29.6737913 69.3605405,29.0759652 69.1276486,28.4712522 C68.9032703,27.8621391 68.7676216,27.2453739 68.6919459,26.6452522 C68.6122973,26.0449391 68.603027,25.4584 68.6486216,24.901513 C68.7367838,23.7875478 68.9876486,22.7870261 69.3262973,21.9521739 C69.6734595,21.1196174 70.0762432,20.4445043 70.4506486,19.9253043 C70.8347027,19.4106957 71.1786486,19.0489391 71.4204324,18.8059826 C71.5452973,18.684313 71.6397027,18.6009043 71.7036486,18.5444696 C71.7674054,18.4876522 71.8005135,18.4581913 71.8005135,18.4581913 C71.8956757,18.3734435 72.0407838,18.3826261 72.1247838,18.4788522 C72.2004595,18.5657043 72.2002703,18.6940696 72.1295135,18.7805391" id="Fill-5"></path>
                <path d="M43.8358919,23.2710261 C44.7640541,23.3473565 45.7079189,23.110713 46.5167027,22.6613391 C47.3205676,22.2140696 47.9952162,21.5102609 48.2135405,20.6662261 C48.2659459,20.4563652 48.2918649,20.2413391 48.2943243,20.0249739 C48.2916757,19.9165043 48.2892162,19.8084174 48.2737027,19.6999478 C48.268973,19.6458087 48.261973,19.5918609 48.2500541,19.537913 L48.223,19.3929043 C48.1564054,19.096 47.8275946,18.9121565 47.4505405,18.8773391 C47.0732973,18.8440522 46.6705135,18.9588348 46.3182432,19.1677391 C45.9638919,19.3787478 45.6575946,19.6857913 45.4021892,20.0372174 C44.8891081,20.7454261 44.5816757,21.623513 44.3765946,22.5234087 C44.1754865,23.4288522 44.0782432,24.3712174 44.0362432,25.3218087 C44.0192162,25.7975826 44.0103243,26.2758435 44.0182703,26.7558261 C44.0235676,27.2073043 44.0761622,27.6641391 44.1497568,28.1248 C44.2956216,29.0411478 44.5531081,29.9467826 44.950027,30.7353391 C45.3482703,31.5219826 45.9423243,32.1517565 46.7005946,32.2973391 L46.8434324,32.324313 L46.9906216,32.3365565 L47.0275135,32.34 L47.0458649,32.3417217 C47.068,32.3417217 47.026,32.3430609 47.0347027,32.3428696 L47.0460541,32.3426783 C47.0740541,32.342487 47.1181351,32.3421043 47.113027,32.3409565 C47.1164324,32.3432522 47.1656216,32.3354087 47.1930541,32.328713 C47.3256757,32.2994435 47.4915946,32.2062783 47.6510811,32.0804 C47.974027,31.8248174 48.2780541,31.4636348 48.5595676,31.087913 C49.1235405,30.3269043 49.6156216,29.478087 50.1003243,28.6281217 C50.578027,27.7720348 51.0496757,26.9063826 51.5213243,26.0380522 C51.9956216,25.1712522 52.4818378,24.3073217 53.0074054,23.4636696 C53.5350541,22.6217391 54.0973243,21.7953043 54.750027,21.0297043 C55.4055676,20.2765391 56.1644054,19.5501565 57.151973,19.1656348 C57.6414054,18.9762435 58.1906216,18.9039304 58.7180811,18.9875304 C59.2462973,19.0697913 59.7359189,19.2917043 60.1667027,19.5746435 L60.168027,19.5752174 C60.2900541,19.6387304 60.3379189,19.7900522 60.2751081,19.9132522 C60.224027,20.013687 60.1152432,20.0643826 60.0108108,20.0454435 L59.9601081,20.0362609 C58.9263784,19.8478261 57.8669189,19.8549043 57.0210541,20.2862957 C56.1717838,20.7035304 55.5841622,21.5081565 55.2383243,22.4312 C54.5636757,24.3023478 54.6645135,26.5126783 55.2733243,28.4312696 C55.4337568,28.9102957 55.6361892,29.3701913 55.8902703,29.7847478 C56.1473784,30.1958609 56.4599189,30.560487 56.8371622,30.8049739 C56.857973,30.8168348 56.8280811,30.802487 56.8396216,30.8086087 L56.8619459,30.8214261 L56.9062162,30.8468696 L56.9949459,30.8975652 C57.0524595,30.929513 57.1167838,30.9700696 57.1688108,30.9947478 C57.2747568,31.0404696 57.368973,31.0999652 57.4855135,31.1393739 C57.7098919,31.2321565 57.942973,31.2966261 58.1805946,31.3356522 C58.6550811,31.4085391 59.1520811,31.3687478 59.6222162,31.2057565 C60.5721351,30.8814957 61.3780811,30.1386609 62.0018378,29.2904174 C62.6284324,28.4341391 63.1174865,27.4678609 63.504,26.4633217 C63.8944865,25.456487 64.1756216,24.4142609 64.4001892,23.3464 C64.6327027,22.2802609 64.8133784,21.2014957 64.9749459,20.1202435 C65.2937297,17.9564 65.5321081,15.7784 65.6887568,13.5948522 C65.8471081,11.4118783 65.9449189,9.22335652 65.9534324,7.04038261 C65.9558919,5.94975652 65.9375405,4.85836522 65.8652703,3.78189565 C65.8274324,3.24547826 65.7776757,2.70791304 65.6876216,2.20306087 C65.6433514,1.95914783 65.5797838,1.69495652 65.5092162,1.55262609 C65.4952162,1.52125217 65.4757297,1.50269565 65.4984324,1.52909565 C65.5137568,1.54516522 65.5417568,1.57290435 65.6108108,1.59987826 C65.6800541,1.62876522 65.7778649,1.62953043 65.8353784,1.61135652 C65.8978108,1.59165217 65.9167297,1.57711304 65.9294054,1.56812174 L65.9341351,1.56486957 C65.9301622,1.56869565 66.0037568,1.49466087 65.9638378,1.53617391 C65.9526757,1.54822609 65.9551351,1.54822609 65.9751892,1.52507826 C65.9869189,1.51226087 66.0026216,1.48605217 66.0058378,1.48050435 C66.0105676,1.47323478 65.989,1.52488696 65.9759459,1.57347826 C65.9148378,1.7862087 65.8641351,2.0549913 65.8189189,2.31286957 C65.7742703,2.57476522 65.7337838,2.84106087 65.6972703,3.10869565 C65.6276486,3.64492174 65.5688108,4.18631304 65.5141351,4.72846957 L65.1976216,7.98906087 C64.9736216,10.1643826 64.7902973,12.3465913 64.6461351,14.5310957 C64.5053784,16.7157913 64.393,18.9025913 64.326973,21.0895826 C64.2641622,23.2765739 64.2488378,25.464713 64.3247027,27.6455826 C64.3634865,28.7358261 64.4266757,29.8241565 64.5307297,30.9054087 C64.6376216,31.9853217 64.7781892,33.0627478 65.0195946,34.1047826 C65.0793784,34.3632348 65.1503243,34.625513 65.2222162,34.8715304 C65.2551351,34.9805739 65.2978919,35.1003304 65.3393243,35.1774261 C65.3588108,35.2164522 65.3809459,35.2461043 65.3809459,35.2461043 C65.3805676,35.2480174 65.3701622,35.2378783 65.3467027,35.2311826 C65.3226757,35.2212348 65.2857838,35.2202783 65.2613784,35.2250609 C65.2118108,35.237687 65.2273243,35.2441913 65.2505946,35.2229565 C65.275,35.2036348 65.3090541,35.1676696 65.341973,35.1267304 C65.4093243,35.043513 65.4770541,34.9377217 65.5413784,34.8288696 C65.6704054,34.6086783 65.7901622,34.3682087 65.9068919,34.1256348 C66.3617027,33.1442435 66.7775405,32.1201913 67.2429459,31.1215826 C68.169027,29.1258957 69.2309459,27.1470435 70.7297027,25.4976174 C71.4764324,24.6767304 72.3502973,23.9618261 73.3369189,23.4445391 C74.3237297,22.9295478 75.4369189,22.6582783 76.5457568,22.6682261 C76.6254054,22.6684174 76.6901081,22.7338435 76.6899189,22.8143826 C76.6899189,22.8945391 76.6246486,22.9595826 76.5457568,22.9603478 C75.4804324,22.9613043 74.4236216,23.230087 73.4839189,23.7313043 C72.5385405,24.2277391 71.7255946,24.954313 71.0218108,25.7641043 C69.6144324,27.4003304 68.6253514,29.363687 67.7652973,31.3593739 C67.3331892,32.3616174 66.9459189,33.3797391 66.514,34.4041739 C66.4055946,34.661287 66.2941622,34.9182087 66.1588919,35.1781913 C66.090027,35.3082783 66.0177568,35.4387478 65.9203243,35.574 C65.8705676,35.6417217 65.8160811,35.7109739 65.7390811,35.782713 C65.6609459,35.8510087 65.5591622,35.9384348 65.3743243,35.9732522 C65.2825676,35.9897043 65.1768108,35.9784174 65.0886486,35.9472348 C65.002,35.915287 64.9331351,35.8686087 64.8824324,35.8244174 C64.7789459,35.7335478 64.7240811,35.6484174 64.6752703,35.5692174 C64.5802973,35.408713 64.5269459,35.2696348 64.4718919,35.1194609 C64.3769189,34.8426435 64.3065405,34.5742435 64.235973,34.2997217 C63.9614595,33.2066087 63.7904324,32.1046957 63.6566757,31.0022087 C63.5253784,29.8995304 63.4362703,28.7953217 63.3719459,27.6913043 C63.2444324,25.482887 63.213027,23.2750435 63.2277838,21.069113 C63.2421622,18.8631826 63.3117838,16.6591652 63.4277568,14.4578261 C63.542027,12.256487 63.6918649,10.0570609 63.8903243,7.85954783 C63.9883243,6.76031304 64.1330541,5.66528696 64.2967027,4.57045217 C64.3803243,4.02313043 64.4701892,3.4761913 64.571027,2.92753043 C64.6194595,2.65281739 64.6703514,2.37753043 64.7278649,2.10013913 C64.7882162,1.81968696 64.844973,1.5488 64.9458108,1.23697391 C64.9745676,1.15509565 64.9987838,1.07685217 65.0678378,0.948486957 C65.079,0.927826087 65.1047297,0.887652174 65.1253514,0.860104348 C65.1539189,0.822034783 65.1675405,0.808069565 65.1675405,0.808069565 C65.1384054,0.836573913 65.2235405,0.749913043 65.2331892,0.7436 L65.2772703,0.707443478 C65.3446216,0.658469565 65.4214324,0.605286957 65.5502703,0.56893913 C65.6730541,0.532208696 65.8414324,0.533930435 65.9748108,0.585773913 C66.1081892,0.63666087 66.1902973,0.708017391 66.2544324,0.771530435 C66.3715405,0.897026087 66.4205405,0.999182609 66.4651892,1.0913913 C66.6195676,1.45046957 66.6592973,1.73187826 66.7109459,2.02706087 C66.7987297,2.60613913 66.8344865,3.16532174 66.8598378,3.72526957 C66.9063784,4.84248696 66.8963514,5.94956522 66.8660811,7.05511304 C66.801,9.26544348 66.6464324,11.4660174 66.4311351,13.660087 C66.2097838,15.8535826 65.9447297,18.042487 65.5803514,20.218 C65.3985405,21.3057565 65.1896757,22.3893043 64.9596216,23.4697913 C64.7305135,24.5497043 64.4368919,25.6332522 64.0312703,26.6720348 C63.6284865,27.7119652 63.1188108,28.7193739 62.4507838,29.6292174 C61.7854054,30.5319826 60.952027,31.3674087 59.8581351,31.8372522 C59.3128919,32.0591652 58.7063514,32.186 58.1,32.1441043 C57.7980541,32.1236348 57.4962973,32.0763826 57.2064595,31.9912522 C57.0607838,31.9575826 56.9109459,31.8921565 56.7628108,31.8412696 C56.689027,31.813913 56.6349189,31.7865565 56.570027,31.7590087 L56.4765676,31.7178783 L56.4298378,31.6972174 L56.4065676,31.686887 C56.4027838,31.6859304 56.3587027,31.6620174 56.3647568,31.6652696 C55.7905676,31.3723826 55.324027,30.930087 54.9622973,30.4424522 C54.5967838,29.9546261 54.3133784,29.4216522 54.1005405,28.8697391 C53.6637027,27.7685913 53.4684595,26.5978087 53.4675135,25.4283652 C53.4661892,24.8431652 53.5102703,24.2562435 53.6120541,23.6741043 C53.7195135,23.093113 53.8854324,22.5176696 54.1232432,21.9634609 C54.3631351,21.4104 54.6891081,20.8818261 55.1142162,20.4282435 C55.5344054,19.9725565 56.0654595,19.6042957 56.6474054,19.3915652 C57.2263243,19.1671652 57.8434595,19.1101565 58.4278649,19.1482261 C59.0143514,19.1933739 59.5737838,19.3402957 60.0991622,19.5434609 L59.8912432,20.0045043 L59.8902973,20.0037391 C59.503973,19.7489217 59.0815135,19.5601043 58.6414595,19.4906609 C58.201973,19.4208348 57.7507568,19.4776522 57.3279189,19.6393043 C56.4771351,19.9706435 55.7691892,20.6530261 55.1533784,21.3799826 C54.5347297,22.1161217 54.0032973,22.9349043 53.5076216,23.7741565 C53.0117568,24.6145565 52.5514595,25.4800174 52.1006216,26.3529391 C51.6471351,27.2245217 51.2180541,28.1119826 50.7647568,28.9927478 C50.3137297,29.8756174 49.8560811,30.7581043 49.2985405,31.6161043 C49.014,32.0429043 48.7107297,32.4674087 48.2865676,32.8513565 C48.0718378,33.0394087 47.8207838,33.2255478 47.4825135,33.3349739 C47.3926486,33.3615652 47.3222703,33.3822261 47.204027,33.3958087 C47.1385676,33.4040348 47.1215405,33.4036522 47.0882432,33.4063304 L47.0428378,33.4076696 L47.0155946,33.407287 L46.9609189,33.4063304 L46.7422162,33.4011652 L46.5223784,33.3755304 C45.9334324,33.297287 45.3704054,33.0170261 44.9292162,32.6437913 C44.4853784,32.2688348 44.1440811,31.8160174 43.8697568,31.3465565 C43.3211081,30.4024696 43.0201081,29.385687 42.8201351,28.3618261 C42.728,27.849513 42.6623514,27.3228522 42.6481622,26.7864348 C42.6326486,26.2790957 42.6343514,25.768887 42.6612162,25.257913 C42.7105946,24.2367304 42.8437838,23.2063652 43.1315405,22.1976174 C43.417973,21.1936522 43.8542432,20.193513 44.5699459,19.3559826 C44.9273243,18.9404696 45.3609459,18.5724 45.8704324,18.3177739 C46.3763243,18.0637217 46.9662162,17.9256 47.5625405,18.0191478 C47.8588108,18.0669739 48.1573514,18.1746783 48.4193784,18.3698087 C48.5499189,18.4671826 48.6700541,18.5888522 48.765973,18.733287 C48.814027,18.8052174 48.8562162,18.8826957 48.8898919,18.9645739 C48.9072973,19.001687 48.9241351,19.0542957 48.9390811,19.1025043 C48.9555405,19.1553043 48.9553514,19.1690783 48.9642432,19.2042783 L48.9704865,19.2333565 L48.9723784,19.2461739 L48.975973,19.2716174 L48.9833514,19.3225043 L48.9979189,19.4244696 C49.0090811,19.492 49.0149459,19.5606783 49.0183514,19.6299304 C49.031027,19.7670957 49.0293243,19.9059826 49.0255405,20.044487 C49.0107838,20.321687 48.9644324,20.5979304 48.8842162,20.8636522 C48.7164054,21.3929913 48.4203243,21.870487 48.0470541,22.2504174 C47.6773784,22.6362783 47.239973,22.9349043 46.7800541,23.1694435 C45.8571892,23.6236 44.8174054,23.8495304 43.7976757,23.7324522 L43.7914324,23.7318783 C43.6658108,23.7173391 43.5755676,23.6027478 43.5897568,23.4755304 C43.6037568,23.3511826 43.7132973,23.2610783 43.8358919,23.2710261" id="Fill-6"></path>
                <path d="M83.5752703,12.4707478 C83.5752703,12.4707478 82.9923784,12.4198609 81.9720811,12.3310957 C81.4612703,12.2786783 80.8441351,12.2365913 80.1377027,12.1925913 C79.7844865,12.1692522 79.4085676,12.1445739 79.0122162,12.1185565 C78.6145405,12.0990435 78.1964324,12.0785739 77.7601622,12.0573391 C76.8881892,12.0070261 75.9418649,11.9823478 74.9414324,11.9580522 C74.4414054,11.9406435 73.927,11.9381565 73.4014324,11.9356696 C72.8760541,11.9306957 72.3393243,11.9255304 71.7935135,11.9201739 C70.7011351,11.9276348 69.573,11.926487 68.4263243,11.9614957 C67.2798378,11.9789043 66.1153784,12.0387826 64.9509189,12.0774261 C63.7864595,12.1338609 62.622,12.1805391 61.4762703,12.2562957 C60.3303514,12.3194261 59.2033514,12.4066609 58.1126757,12.4839478 C57.0221892,12.5702261 55.9678378,12.6534435 54.9681622,12.7326435 C53.9684865,12.8164348 53.0234865,12.8967826 52.1515135,12.9803826 C48.6615405,13.3065565 46.3350811,13.5242609 46.3350811,13.5242609 L46.3322432,13.5244522 C45.9985135,13.5556348 45.703,13.3073217 45.6721622,12.9698609 C45.6417027,12.6377565 45.8798919,12.3429565 46.2056757,12.3039304 C46.2056757,12.3039304 46.7872432,12.2348696 47.8052703,12.1141565 C48.3147568,12.0571478 48.9334054,11.9882783 49.6430541,11.9090783 C50.3527027,11.8300696 51.1537297,11.7422609 52.0292973,11.6609565 C52.9041081,11.5731478 53.8530811,11.4880174 54.8569189,11.3990609 C55.8607568,11.3089565 56.9207838,11.2240174 58.0178919,11.1465391 C59.1159459,11.077287 60.2499459,10.9984696 61.4043784,10.9437565 C62.5578649,10.8768 63.731973,10.8389217 64.9051351,10.7910957 C66.0796216,10.7662261 67.2535405,10.7369565 68.4104324,10.7407826 C69.5667568,10.729113 70.7054865,10.7532174 71.8067568,10.7683304 C72.9082162,10.8002783 73.972973,10.8293565 74.9815405,10.8940174 C75.9901081,10.9523652 76.9432432,11.0089913 77.8216486,11.0889565 C78.2609459,11.125687 78.6820811,11.1606957 79.0824054,11.1941739 C79.4827297,11.2389391 79.8624324,11.2814087 80.2194324,11.3213913 C80.9338108,11.3988696 81.5547297,11.4698435 82.0600541,11.5452174 C83.0741081,11.6886957 83.6535946,11.7707652 83.6535946,11.7707652 C83.8442973,11.7977391 83.9771081,11.9758435 83.9504324,12.168487 C83.9247027,12.3546261 83.7584054,12.4864348 83.5752703,12.4707478" id="Fill-7"></path>
            </g>
        </g>
    </g>
</svg>